<svg width="152" height="151" viewBox="0 0 152 151" fill="none" xmlns="http://www.w3.org/2000/svg">
<path d="M51.8029 62.954L50.4363 70.704M63.5754 58.1041L68.7404 59.0148M54.2468 46.071C54.8138 46.099 55.0461 43.0512 55.1433 42.4998M38.6619 52.9128L46.4094 54.2788M49.0066 48.6095C48.5441 48.528 47.6201 47.2404 47.4724 46.7408M61.9191 50.8864C63.4108 51.1494 63.7813 50.2096 65.033 49.8372M59.7781 63.0288C59.7467 63.6527 61.814 65.9997 62.3757 66.4171M44.8752 61.4663C43.0056 61.1366 42.1591 62.6417 40.5915 63.1083M75.5385 31.7308C74.456 31.3979 74.8205 30.7985 73.5637 31.3496C73.4606 31.3948 74.1204 31.492 74.2825 31.3779C74.9001 30.9466 74.3118 30.4962 74.017 30.2771M112.901 107.547C112.25 106.618 110.128 104.277 108.711 105.162C107.574 105.873 109.116 107.831 110.128 106.465M67.7266 98.8363C68.1064 98.9033 68.4954 99.0042 68.8798 99.0304C69.5843 99.08 70.1567 98.3844 70.7417 98.1006C72.4484 97.2716 73.43 95.8247 74.6008 94.4244C76.1706 92.5482 76.6722 90.3101 77.0844 87.9723L77.5179 85.5141C77.636 84.8441 77.4354 84.184 77.549 83.5396C77.6275 83.0945 77.6809 81.8967 77.4907 82.9753L76.3005 89.7254C76.0999 90.863 76.328 92.0298 76.1694 93.1615C75.9354 94.8373 76.4789 97.1072 77.4468 98.4904C77.854 99.0727 78.0473 99.7329 78.4677 100.334C78.8686 100.907 79.3899 101.37 79.9513 101.748C81.0628 102.497 82.6613 102.578 83.9692 102.808M67.1842 99.2155C67.8299 99.3293 68.3189 99.3759 68.8258 99.7863C69.2653 100.144 69.5521 100.929 69.7983 101.454C70.815 103.621 71.5576 105.571 71.6639 107.987C71.7767 110.546 71.5476 113.089 71.1007 115.623L70.592 118.508C70.4545 119.288 70.6952 118.402 70.8076 118.132C71.2903 116.967 71.4267 115.681 72.0175 114.517C72.6868 113.197 73.2014 111.68 74.0663 110.478C75.3127 108.747 76.1649 106.828 77.6702 105.306C78.7199 104.244 79.5226 103.471 81.0941 103.402C81.6599 103.377 82.289 103.146 82.8545 103.246L84.0145 103.45M102.097 63.4383C104.49 63.8602 105.183 67.5639 105.327 69.6141C105.442 71.2411 104.989 72.8789 104.985 74.51C104.983 74.9701 104.948 75.5583 104.87 76.0047C104.828 76.2424 104.808 77.0453 104.92 76.4125C105.211 74.7613 105.86 73.2795 106.749 71.8657C107.655 70.4248 108.879 69.2557 110.048 68.032C111.428 66.5867 113.025 66.583 114.869 66.9082M103.123 63.1326C104.068 63.2992 105.147 63.7847 105.97 63.2086C106.564 62.7922 106.937 62.0641 107.312 61.464C107.944 60.4521 108.511 59.5449 109 58.4476C109.467 57.3988 109.709 56.2501 110.066 55.1599C110.363 54.252 110.688 53.359 110.854 52.4182L110.942 51.9199C110.801 52.7185 110.894 53.5876 110.87 54.3956C110.783 57.2775 110.482 60.7939 111.631 63.5364C111.886 64.1474 114.138 66.4986 114.887 66.7191" stroke="white" stroke-width="7.5" stroke-miterlimit="10" stroke-linecap="round"/>
</svg>
