<svg width="131" height="131" viewBox="0 0 131 131" fill="none" xmlns="http://www.w3.org/2000/svg">
<path d="M48.8782 57.6801C48.1498 57.5884 48.5114 51.6392 48.5797 50.6734C48.7104 48.8256 50.1966 46.6506 51.8831 45.8955C53.2092 45.3023 54.233 45.2588 55.6619 45.2588C56.9594 45.2588 57.4264 46.0184 58.1919 47.0103C59.1311 48.2259 58.9685 50.1361 59.3867 51.5579C59.4635 51.8161 59.63 53.0024 59.9493 52.832C61.0752 52.2317 61.8413 50.4711 62.6205 49.5052C64.7304 46.8906 73.2552 37.5658 75.3788 44.6929C76.2314 47.5534 76.0818 50.7143 76.0818 53.6808V56.8307C76.0818 56.8762 76.357 56.5022 76.5384 56.406C77.4074 55.9442 78.3576 55.5331 79.2623 55.1494C83.0535 53.5423 87.672 54.1764 91.7045 54.1764C93.8254 54.1764 94.1122 55.6294 94.1122 57.5208C94.1122 61.0388 91.1074 64.8456 88.7347 67.2351C88.1247 67.8485 87.3331 68.186 86.7666 68.7564C86.0206 69.507 88.8752 68.8267 89.9295 68.8267C92.2105 68.8267 95.8059 68.0728 97.3454 70.2426C98.9232 72.4663 97.772 76.2484 96.7125 78.3817C95.5099 80.8038 93.9457 82.3309 91.1067 82.5046C90.0492 82.569 88.6964 82.6971 87.6447 82.5046C86.9273 82.3732 86.8362 82.0766 86.8362 83.0177C86.8362 84.9611 85.1328 86.5533 83.3566 87.1224C79.9413 88.217 75.6884 86.9312 72.9365 84.8935C70.6406 83.1933 69.3431 80.8786 68.1034 78.3817C67.7626 77.6955 67.4972 77.6129 66.8384 78.063C65.3242 79.0978 63.9649 80.2425 62.4098 81.248C56.3481 85.1667 50.0906 87.9614 42.9388 88.8213C39.8162 89.1965 38.1238 88.0616 38.1238 84.9995C38.1238 81.7312 39.9547 79.7703 42.2532 77.7449C42.8555 77.2142 43.7309 76.4708 44.5732 76.4708H41.7433C37.839 76.4708 33.8722 75.5004 33.2205 71.0387C32.7457 67.7873 33.385 64.5243 36.5421 62.9353C38.6565 61.8706 40.2715 61.8206 42.6227 61.8206C42.7319 61.8206 44.2844 61.8954 44.3092 61.8206C44.4672 61.3438 44.1335 59.6911 44.1335 59.0954C44.1335 56.7136 46.3007 54.9491 48.5621 56.0873" stroke="white" stroke-width="7.5" stroke-miterlimit="10" stroke-linecap="round"/>
</svg>
