<svg width="152" height="151" viewBox="0 0 152 151" fill="none" xmlns="http://www.w3.org/2000/svg">
<path d="M56.6779 65.5472C56.3331 63.5918 55.9626 62.3634 57.3005 60.7373C58.6119 59.1444 60.7069 58.9618 62.5861 58.6305C63.7871 58.4187 64.7714 58.1019 65.5248 59.3526C66.3436 60.7113 67.1847 61.7174 67.4727 63.3506C67.626 64.2198 67.4517 64.0702 67.7688 63.3631C68.5369 61.6553 70.0665 60.0713 71.3746 58.7781C73.7217 56.4563 76.8856 54.3465 80.2008 53.7619C81.1437 53.5957 84.317 53.083 84.7331 54.4315C85.0961 55.6097 86.1393 57.3423 85.1759 58.613C84.6598 59.2931 84.4297 60.1718 83.9389 60.8712C83.8539 60.9925 83.4109 61.1089 83.4483 61.0554C83.7245 60.6626 84.3491 60.3887 84.7421 60.1418C88.2086 57.9654 92.0374 56.6715 96.1225 56.2582C97.5863 56.1104 98.6269 56.6897 99.9344 57.2021C100.713 57.5067 100.945 58.2279 101.492 58.5269C102.862 59.274 101.024 61.9617 100.784 62.7647C100.688 63.0889 100.195 63.9319 100.856 63.9105C102.094 63.8698 103.284 63.8325 104.52 64.0152C106.578 64.3188 108.967 64.9198 110.269 66.6734C112.14 69.1919 110.559 71.9907 108.799 74.0968C106.799 76.4901 104.524 77.4685 101.526 77.9091C100.869 78.006 100.435 77.665 99.8958 77.3804C99.7486 77.3027 99.7537 79.5822 99.727 79.7605C99.0733 84.1546 96.2975 90.5923 91.9721 92.5193C87.5211 94.5021 75.2817 97.6112 76.9574 88.7694C77.0892 88.0713 77.256 87.036 77.6613 86.458C78.0349 85.9253 77.3386 86.9911 76.9689 87.1679C73.4819 88.8308 69.4317 90.4088 65.4816 90.0744C61.5772 89.7445 58.2147 87.7539 55.2435 85.4169C53.0328 83.6776 54.3552 80.7988 55.3682 78.9817C55.6496 78.4764 56.2549 77.527 56.8346 77.2867C57.476 77.0211 57.7472 77.3312 57.0186 77.6783C55.2514 78.5215 53.2595 79.0755 51.3412 79.4137C49.3326 79.7679 47.1007 80.4963 45.0832 79.8971C40.0044 78.3907 35.7525 71.8092 40.5755 67.6852C42.6685 65.8956 45.6138 63.9735 48.3693 63.4877C49.9769 63.2042 52.0775 62.4389 53.6991 62.8411C54.9864 63.1603 57.2348 63.9077 58.054 65.0107" stroke="white" stroke-width="7.5" stroke-miterlimit="10" stroke-linecap="round"/>
</svg>
