<svg width="131" height="131" viewBox="0 0 131 131" fill="none" xmlns="http://www.w3.org/2000/svg">
<path d="M72.9989 88.5507C70.5437 88.5507 70.1177 87.1283 68.3746 85.9244C63.0153 82.221 58.4488 77.0997 54.752 72.2653C49.6919 65.6494 44.9153 58.3578 42.769 50.7273C41.8981 47.6262 41.9228 42.6077 42.6201 39.4917C43.6386 34.9421 47.2639 39.945 48.834 40.9479C55.0843 44.9388 59.3035 53.7738 61.4147 59.7783C62.2023 62.0215 64.0494 63.5428 64.0494 60.0215C64.0494 53.924 65.7834 49.5592 69.2201 44.1797C71.0373 41.3355 81.4945 25.2804 86.2248 32.5408C88.8635 36.5948 88.2131 41.1996 88.2131 45.9989C88.2131 56.0977 82.9234 65.5857 79.2148 75.1342C76.9059 81.0756 74.4806 87.283 71.2084 92.9155C70.3037 94.4726 69.0933 100.321 67.6292 100.917" stroke="white" stroke-width="7.5" stroke-miterlimit="10" stroke-linecap="round"/>
</svg>
