<svg width="173" height="173" viewBox="0 0 173 173" fill="none" xmlns="http://www.w3.org/2000/svg">
<path d="M83.461 110.651C81.2358 109.614 81.4509 108.145 80.38 106.317C77.088 100.696 75.1139 94.1243 73.8066 88.1805C72.0167 80.046 70.7694 71.419 72.049 63.5963C72.5704 60.4177 74.7137 55.8799 76.6625 53.3504C79.5083 49.6576 80.6795 55.7238 81.6786 57.2963C85.6565 63.5546 85.7464 73.3449 85.1221 79.6791C84.8879 82.045 85.919 84.2043 87.4072 81.013C89.9841 75.4868 93.4002 72.2637 98.7883 68.8406C101.637 67.0308 117.899 56.8992 119.118 65.4784C119.796 70.2676 117.261 74.1662 115.232 78.5158C110.965 87.6684 102.161 94.0321 94.7643 101.119C90.1609 105.528 85.3395 110.129 79.9936 113.851C78.5156 114.879 74.947 119.668 73.3684 119.59" stroke="white" stroke-width="7.5" stroke-miterlimit="10" stroke-linecap="round"/>
</svg>
