<svg width="168" height="167" viewBox="0 0 168 167" fill="none" xmlns="http://www.w3.org/2000/svg">
<path d="M112.988 61.5096C108.836 60.2211 103.926 60.8268 100.929 57.4851M102.941 95.1397C101.048 94.5657 98.7472 94.6971 96.7811 94.4126C95.1898 94.182 93.2929 93.5913 91.797 92.9972C90.8419 92.6188 89.4038 91.5068 88.7468 90.7742M89.6001 100.73C89.9252 100.612 90.2543 100.79 90.6057 100.774C91.4908 100.736 92.1859 100.845 93.0492 100.983C93.2778 101.019 94.7344 101.324 94.4586 101.69C93.7988 102.567 92.4638 102.974 91.5729 103.544C90.6466 104.138 90.764 102.51 90.8136 102.059M113.407 52.8709C114.409 53.4034 114.846 54.049 115.222 55.03C116.5 58.3654 114.33 62.2889 113.204 65.2139C111.673 69.1901 111.261 73.5325 109.734 77.4982C108.008 81.9793 106.5 86.5522 104.771 91.0423C104.137 92.6906 103.292 94.2285 102.659 95.8722C102.392 96.5653 101.875 97.7281 101.156 98.1024C98.7768 99.3443 97.1531 101.672 94.7518 102.956C93.7675 103.483 91.3645 105.135 90.4309 103.743C89.9296 102.996 89.8842 101.958 89.3927 101.205C89.1695 100.862 88.7656 99.6244 88.7585 99.2511C88.7343 97.9525 88.0214 96.5509 87.8585 95.1907C87.675 93.6635 88.2314 92.6478 88.5665 91.2067C89.1114 88.8628 89.7497 86.5167 90.3478 84.1438C90.8685 82.0773 91.3606 80.0599 92.1276 78.0691C92.978 75.859 93.3877 73.4876 94.235 71.2862C95.6488 67.6156 97.3724 64.1762 99.0411 60.6204C99.9021 58.7892 101.174 57.1925 101.894 55.3219C102.583 53.535 103.331 52.0305 105.655 51.8098C107.023 51.6792 108.192 51.7384 109.574 51.7379C110.686 51.7374 112.071 52.5538 113.13 52.974M53.7148 116.128C54.8633 114.628 55.8393 112.782 57.2866 111.552C58.6535 110.39 60.4086 109.443 62.1837 109.117C64.3435 108.723 66.1116 109.498 67.9672 110.535C68.6332 110.906 69.3172 111.232 70.006 111.557C70.5619 111.82 71.2119 112.242 71.8391 112.298C72.3637 112.344 72.6479 111.643 72.9031 111.295C73.7796 110.097 74.7752 109.035 76.0255 108.23C77.4161 107.335 78.873 106.74 80.5396 107.217C81.5323 107.501 82.5289 107.862 83.5458 108.041C84.1754 108.153 85.0158 107.212 85.369 106.726" stroke="white" stroke-width="7.5" stroke-miterlimit="10" stroke-linecap="round"/>
</svg>
