<svg width="213" height="213" viewBox="0 0 213 213" fill="none" xmlns="http://www.w3.org/2000/svg">
<g id="SVG">
<path id="Vector" d="M45.2382 97.9256C45.1758 98.6612 45.8136 99.6312 46.1202 100.259C47.1876 102.444 48.0201 104.731 49.1145 106.905C51.3577 111.362 53.6978 115.783 55.8827 120.266C56.2436 121.007 56.9935 123.284 57.8098 123.712C58.1129 123.87 58.3138 123.533 58.5261 123.354C60.1535 121.981 61.6598 120.547 63.374 119.256C73.3632 111.727 83.3665 103.821 94.1796 97.5097C95.8474 96.5354 97.5693 95.6474 99.2686 94.73C99.5256 94.5915 100.515 93.9893 100.849 94.0788C101.023 94.1255 101.394 94.7903 101.486 94.9147C102.463 96.2261 103.417 97.5447 104.224 98.9737C107.937 105.547 111.099 112.5 114.528 119.228C117.117 124.309 119.69 129.391 121.896 134.656C122.225 135.442 122.491 137.519 123.422 136.241C124.849 134.282 126.942 132.681 128.645 130.978C132.744 126.878 136.627 122.569 140.695 118.439C146.473 112.57 152.56 106.917 159.447 102.389C160.522 101.682 162.116 101.081 162.971 100.111M151.041 97.8342C151.041 97.8342 152.546 97.3999 152.934 97.2937C156.742 96.2439 160.773 95.9843 164.666 95.4368C166.875 95.1262 169.124 94.9746 171.309 94.5187C172.004 94.3737 172.841 93.9075 172.585 94.8608C172.14 96.5218 171.417 98.0697 170.836 99.6864C169.339 103.861 167.929 108.109 166.079 112.145C164.856 114.814 163.983 117.754 162.374 120.207" stroke="#A7C957" stroke-width="10" stroke-miterlimit="10" stroke-linecap="round"/>
</g>
</svg>
