<svg width="23" height="25" viewBox="0 0 23 25" fill="none" xmlns="http://www.w3.org/2000/svg">
<g id="SVG">
<path id="Vector" d="M19.7084 0.310059H2.36437C1.40648 0.310059 0.629967 1.08653 0.629967 2.04435V17.653C0.629967 18.6108 1.40648 19.3873 2.36437 19.3873H4.09877V22.8559C4.09864 23.1924 4.2932 23.4986 4.5979 23.6414C4.90259 23.7842 5.26241 23.7379 5.52097 23.5225L10.4835 19.3873H15.058C15.464 19.3874 15.8572 19.2451 16.1691 18.9852L20.8184 15.1101C21.2147 14.7814 21.4437 14.2929 21.4428 13.778V2.04435C21.4428 1.08653 20.6662 0.310059 19.7084 0.310059ZM11.0364 11.583C11.0364 12.0619 10.6481 12.4501 10.1692 12.4501C9.69023 12.4501 9.30197 12.0619 9.30197 11.583V6.3801C9.30197 5.90118 9.69023 5.51295 10.1692 5.51295C10.6481 5.51295 11.0364 5.90118 11.0364 6.3801V11.583ZM16.2396 11.583C16.2396 12.0619 15.8513 12.4501 15.3724 12.4501C14.8934 12.4501 14.5052 12.0619 14.5052 11.583V6.3801C14.5052 5.90118 14.8934 5.51295 15.3724 5.51295C15.8513 5.51295 16.2396 5.90118 16.2396 6.3801V11.583Z" fill="#F2E8CF"/>
</g>
</svg>
