<svg width="25" height="23" viewBox="0 0 25 23" fill="none" xmlns="http://www.w3.org/2000/svg">
<g id="SVG">
<path id="Vector" d="M24.2268 11.7163C24.2195 17.4195 19.962 22.2223 14.3018 22.9128C14.1786 22.9267 14.0553 22.8873 13.9631 22.8044C13.8709 22.7215 13.8185 22.6031 13.8193 22.4791V14.3186H16.4212C16.6615 14.3192 16.8913 14.2199 17.0557 14.0446C17.2201 13.8693 17.3044 13.6336 17.2885 13.3937C17.2487 12.931 16.8584 12.5775 16.3941 12.5838H13.8193V9.98144C13.8193 9.0233 14.5959 8.24657 15.5539 8.24657H17.2885C17.5288 8.2471 17.7586 8.14786 17.923 7.97253C18.0874 7.79721 18.1717 7.56151 18.1558 7.32166C18.116 6.85808 17.7244 6.50429 17.2592 6.51169H15.5539C13.638 6.51169 12.0848 8.06515 12.0848 9.98144V12.5838H9.4829C9.24257 12.5832 9.01279 12.6825 8.84839 12.8578C8.68398 13.0331 8.59969 13.2688 8.61561 13.5087C8.65541 13.9723 9.04701 14.326 9.51217 14.3186H12.0848V22.4812C12.0855 22.605 12.0333 22.7232 11.9414 22.8061C11.8494 22.889 11.7264 22.9286 11.6034 22.9149C5.78067 22.2057 1.47067 17.1552 1.6849 11.2924C1.90172 5.43716 6.64362 0.677091 12.5021 0.449388C15.5668 0.330656 18.5479 1.46434 20.7595 3.58962C22.9712 5.7149 24.2229 8.64879 24.2268 11.7163Z" fill="#F2E8CF"/>
</g>
</svg>
