<svg width="35" height="50" viewBox="0 0 35 50" fill="none" xmlns="http://www.w3.org/2000/svg">
<path d="M22.786 40.4672C21.1491 40.4672 20.8651 39.5189 19.7031 38.7163C16.1302 36.2474 13.0859 32.8332 10.6213 29.6102C7.2479 25.1997 4.06354 20.3386 2.63266 15.2516C2.05207 13.1842 2.06855 9.83852 2.53337 7.76114C3.21238 4.72811 5.62927 8.06336 6.67598 8.73197C10.8429 11.3925 13.6556 17.2826 15.0631 21.2856C15.5882 22.781 16.8196 23.7952 16.8196 21.4477C16.8196 17.3827 17.9756 14.4728 20.2667 10.8865C21.4782 8.9904 28.4496 -1.71302 31.6032 3.12726C33.3623 5.82988 32.9287 8.89978 32.9287 12.0993C32.9287 18.8318 29.4023 25.1572 26.9299 31.5229C25.3906 35.4838 23.7737 39.6221 21.5923 43.377C20.9891 44.4151 20.1822 48.314 19.2062 48.7112" stroke="#386641" stroke-width="2.5" stroke-miterlimit="10" stroke-linecap="round"/>
</svg>
