<svg width="23" height="23" viewBox="0 0 23 23" fill="none" xmlns="http://www.w3.org/2000/svg">
<g id="SVG">
<path id="Vector" d="M16.6332 0.873535H7.09396C3.74138 0.873535 1.02356 3.59135 1.02356 6.94394V16.4831C1.02356 19.8357 3.74138 22.5535 7.09396 22.5535H16.6332C19.9858 22.5535 22.7036 19.8357 22.7036 16.4831V6.94394C22.7036 3.59135 19.9858 0.873535 16.6332 0.873535ZM11.8636 16.9167C8.98992 16.9167 6.66036 14.5872 6.66036 11.7135C6.66036 8.83989 8.98992 6.51034 11.8636 6.51034C14.7372 6.51034 17.0668 8.83989 17.0668 11.7135C17.0668 14.5872 14.7372 16.9167 11.8636 16.9167ZM17.5004 7.37754C16.782 7.37754 16.1996 6.79515 16.1996 6.07674C16.1996 5.35832 16.782 4.77594 17.5004 4.77594C18.2188 4.77594 18.8012 5.35832 18.8012 6.07674C18.8012 6.79515 18.2188 7.37754 17.5004 7.37754Z" fill="#F2E8CF"/>
</g>
</svg>
