<svg width="164" height="29" viewBox="0 0 164 29" fill="none" xmlns="http://www.w3.org/2000/svg">
<g clip-path="url(#clip0_3_330)">
<g clip-path="url(#clip1_3_330)">
<path d="M27.5406 9.26403L24.2671 12.5269C23.6167 20.104 17.2215 25.9901 9.57977 25.9901C8.00807 25.9901 6.70735 25.7408 5.72097 25.253C4.92969 24.8519 4.60451 24.4292 4.5178 24.2991C4.37245 24.0783 4.33573 23.8033 4.41804 23.5522C4.50035 23.301 4.69272 23.1011 4.94053 23.0091C4.96221 22.9983 7.5203 22.0227 9.17872 20.1474C8.15022 19.415 7.24623 18.522 6.5014 17.5024C5.01641 15.4862 3.4447 11.9849 4.38773 6.75999C4.44812 6.44355 4.67693 6.1856 4.98389 6.08791C5.29204 5.987 5.63074 6.06645 5.86188 6.29387C5.8944 6.33723 9.5039 9.89275 13.9155 11.0418V10.3805C13.9241 8.99194 14.484 7.66362 15.4719 6.68783C16.4598 5.71203 17.7949 5.1687 19.1834 5.17735C21.019 5.20353 22.7061 6.19117 23.6276 7.77895H26.9227C27.2728 7.77785 27.5892 7.98737 27.7248 8.31011C27.8524 8.63703 27.7807 9.00813 27.5406 9.26403Z" fill="#F2E8CF"/>
</g>
<g clip-path="url(#clip2_3_330)">
<path d="M56.4 14.7201C56.4 12.8036 57.9536 11.25 59.87 11.25C61.7865 11.25 63.3401 12.8036 63.3401 14.7201C63.3401 16.6366 61.7865 18.1902 59.87 18.1902C57.9536 18.1902 56.4 16.6366 56.4 14.7201Z" fill="#F2E8CF"/>
<path d="M64.6332 3.87354H55.094C51.7414 3.87354 49.0236 6.59135 49.0236 9.94394V19.4831C49.0236 22.8357 51.7414 25.5535 55.094 25.5535H64.6332C67.9858 25.5535 70.7036 22.8357 70.7036 19.4831V9.94394C70.7036 6.59135 67.9858 3.87354 64.6332 3.87354ZM59.8636 19.9167C56.9899 19.9167 54.6604 17.5872 54.6604 14.7135C54.6604 11.8399 56.9899 9.51034 59.8636 9.51034C62.7372 9.51034 65.0668 11.8399 65.0668 14.7135C65.0668 17.5872 62.7372 19.9167 59.8636 19.9167ZM65.5004 10.3775C64.782 10.3775 64.1996 9.79515 64.1996 9.07674C64.1996 8.35832 64.782 7.77594 65.5004 7.77594C66.2188 7.77594 66.8012 8.35832 66.8012 9.07674C66.8012 9.79515 66.2188 10.3775 65.5004 10.3775Z" fill="#F2E8CF"/>
</g>
<path d="M116.227 14.7163C116.219 20.4195 111.962 25.2223 106.302 25.9128C106.179 25.9267 106.055 25.8873 105.963 25.8044C105.871 25.7215 105.819 25.6031 105.819 25.4791V17.3186H108.421C108.662 17.3192 108.891 17.2199 109.056 17.0446C109.22 16.8693 109.304 16.6336 109.288 16.3937C109.249 15.931 108.858 15.5775 108.394 15.5838H105.819V12.9814C105.819 12.0233 106.596 11.2466 107.554 11.2466H109.288C109.529 11.2471 109.759 11.1479 109.923 10.9725C110.087 10.7972 110.172 10.5615 110.156 10.3217C110.116 9.85808 109.724 9.50429 109.259 9.51169H107.554C105.638 9.51169 104.085 11.0652 104.085 12.9814V15.5838H101.483C101.243 15.5832 101.013 15.6825 100.848 15.8578C100.684 16.0331 100.6 16.2688 100.616 16.5087C100.655 16.9723 101.047 17.326 101.512 17.3186H104.085V25.4812C104.086 25.605 104.033 25.7232 103.941 25.8061C103.849 25.889 103.726 25.9286 103.603 25.9149C97.7807 25.2057 93.4707 20.1552 93.6849 14.2924C93.9017 8.43716 98.6436 3.67709 104.502 3.44939C107.567 3.33066 110.548 4.46434 112.76 6.58962C114.971 8.7149 116.223 11.6488 116.227 14.7163Z" fill="#F2E8CF"/>
<g clip-path="url(#clip3_3_330)">
<path d="M158.708 4.31006H141.364C140.406 4.31006 139.63 5.08653 139.63 6.04435V21.653C139.63 22.6108 140.406 23.3873 141.364 23.3873H143.099V26.8559C143.099 27.1924 143.293 27.4986 143.598 27.6414C143.903 27.7842 144.262 27.7379 144.521 27.5225L149.484 23.3873H154.058C154.464 23.3874 154.857 23.2451 155.169 22.9852L159.818 19.1101C160.215 18.7814 160.444 18.2929 160.443 17.778V6.04435C160.443 5.08653 159.666 4.31006 158.708 4.31006ZM150.036 15.583C150.036 16.0619 149.648 16.4501 149.169 16.4501C148.69 16.4501 148.302 16.0619 148.302 15.583V10.3801C148.302 9.90118 148.69 9.51295 149.169 9.51295C149.648 9.51295 150.036 9.90118 150.036 10.3801V15.583ZM155.24 15.583C155.24 16.0619 154.851 16.4501 154.372 16.4501C153.893 16.4501 153.505 16.0619 153.505 15.583V10.3801C153.505 9.90118 153.893 9.51295 154.372 9.51295C154.851 9.51295 155.24 9.90118 155.24 10.3801V15.583Z" fill="#F2E8CF"/>
</g>
</g>
<defs>
<clipPath id="clip0_3_330">
<rect width="163.01" height="27.75" fill="white" transform="translate(0.899963 0.839844)"/>
</clipPath>
<clipPath id="clip1_3_330">
<rect width="27.75" height="27.75" fill="white" transform="translate(0.899963 0.839844)"/>
</clipPath>
<clipPath id="clip2_3_330">
<rect width="27.75" height="27.75" fill="white" transform="translate(45.99 0.839844)"/>
</clipPath>
<clipPath id="clip3_3_330">
<rect width="27.74" height="27.75" fill="white" transform="translate(136.17 0.839844)"/>
</clipPath>
</defs>
</svg>
