<svg width="25" height="22" viewBox="0 0 25 22" fill="none" xmlns="http://www.w3.org/2000/svg">
<g id="SVG">
<path id="Vector" d="M24.5406 5.26403L21.2671 8.52687C20.6167 16.104 14.2215 21.9901 6.57977 21.9901C5.00807 21.9901 3.70735 21.7408 2.72097 21.253C1.92969 20.8519 1.60451 20.4292 1.5178 20.2991C1.37245 20.0783 1.33573 19.8033 1.41804 19.5522C1.50035 19.301 1.69272 19.1011 1.94053 19.0091C1.96221 18.9983 4.5203 18.0227 6.17872 16.1474C5.15022 15.415 4.24623 14.522 3.5014 13.5024C2.01641 11.4862 0.444702 7.98487 1.38773 2.75999C1.44812 2.44355 1.67693 2.1856 1.98389 2.08791C2.29204 1.987 2.63074 2.06645 2.86188 2.29387C2.8944 2.33723 6.5039 5.89275 10.9155 7.04179V6.38055C10.9241 4.99194 11.484 3.66362 12.4719 2.68783C13.4598 1.71203 14.7949 1.1687 16.1834 1.17735C18.019 1.20353 19.7061 2.19117 20.6276 3.77895H23.9227C24.2728 3.77785 24.5892 3.98737 24.7248 4.31011C24.8524 4.63703 24.7807 5.00813 24.5406 5.26403Z" fill="#F2E8CF"/>
</g>
</svg>
